<mxfile host="app.diagrams.net" modified="2023-05-15T01:39:36.551Z" agent="Mozilla/5.0 (Windows NT 10.0; Win64; x64) AppleWebKit/537.36 (KHTML, like Gecko) Chrome/113.0.0.0 Safari/537.36" version="21.3.0" etag="RyG0ZXql-81CjLOef4Dx" type="github">
  <diagram name="第 1 页" id="YayWYSjHrzJT9Hz1nI6K">
    <mxGraphModel>
      <root>
        <mxCell id="0" />
        <mxCell id="1" parent="0" />
      </root>
    </mxGraphModel>
  </diagram>
</mxfile>
